<svg width="985" height="221" viewBox="0 0 985 221" fill="none" xmlns="http://www.w3.org/2000/svg">
    <g clip-path="url(#clip0_137_8259)">
        <path d="M933.113 88.923C929.881 88.923 927.018 91.0054 926.022 94.0796L900.625 172.482C899.629 175.556 896.765 177.639 893.534 177.639H861.454C857.337 177.639 854 180.976 854 185.092V213.286C854 217.402 857.337 220.74 861.454 220.74H927.364C930.596 220.74 933.459 218.657 934.455 215.583L959.852 137.18C960.848 134.106 963.711 132.024 966.943 132.024H977.511C981.628 132.024 984.965 128.687 984.965 124.57V96.3766C984.965 92.2601 981.628 88.923 977.511 88.923H933.113Z" fill="#3D78F4"/>
        <path d="M861.454 0.27025C857.337 0.27025 854 3.60733 854 7.72382V35.9237C854 40.0402 857.337 43.3773 861.454 43.3773H893.683C896.842 43.3773 899.658 45.3691 900.71 48.348L921.821 108.1C925.267 122.183 937.889 132.09 952.389 132.09H977.511C981.628 132.09 984.965 128.753 984.965 124.636V96.4427C984.965 92.3262 981.628 88.9891 977.511 88.9891H966.943C963.711 88.9891 960.848 86.9067 959.852 83.8324L934.455 5.42693C933.459 2.35263 930.596 0.27025 927.364 0.27025H861.454Z" fill="#52C1D7"/>
        <path d="M58.4005 0.27025C55.1689 0.27025 52.3055 2.35264 51.3097 5.42694L25.9123 83.8324C24.9165 86.9067 22.053 88.9891 18.8215 88.9891H8.25636C4.13986 88.9891 0.80278 92.3262 0.80278 96.4427V124.636C0.80278 128.753 4.13986 132.09 8.25635 132.09H52.6546C55.8862 132.09 58.7497 130.007 59.7455 126.933L85.1398 48.5341C86.1356 45.4597 88.9991 43.3773 92.2307 43.3773H124.314C128.43 43.3773 131.768 40.0402 131.768 35.9237V7.72383C131.768 3.60733 128.43 0.27025 124.314 0.27025H58.4005Z" fill="#3D78F4"/>
        <path d="M8.25636 88.923C4.13986 88.923 0.80278 92.2601 0.80278 96.3766V124.57C0.80278 128.687 4.13986 132.024 8.25635 132.024H18.8215C22.0531 132.024 24.9165 134.106 25.9124 137.18L51.3096 215.583C52.3055 218.657 55.1689 220.74 58.4004 220.74H124.314C128.43 220.74 131.768 217.402 131.768 213.286V185.092C131.768 180.976 128.43 177.639 124.314 177.639H92.082C88.9226 177.639 86.1065 175.647 85.0541 172.668L63.9438 112.913C60.5003 98.8303 47.8753 88.923 33.3757 88.923H8.25636Z" fill="#52C1D7"/>
        <path d="M153.876 157.311H116V58.8712H153.492C163.617 58.8712 172.366 60.842 179.736 64.7834C187.138 68.6927 192.842 74.3325 196.847 81.7026C200.885 89.0407 202.903 97.8368 202.903 108.091C202.903 118.345 200.901 127.157 196.895 134.527C192.89 141.865 187.218 147.505 179.88 151.447C172.542 155.356 163.874 157.311 153.876 157.311ZM142.725 134.623H152.915C157.785 134.623 161.935 133.838 165.364 132.268C168.825 130.698 171.452 127.99 173.247 124.145C175.073 120.3 175.986 114.948 175.986 108.091C175.986 101.233 175.057 95.8821 173.199 92.0368C171.372 88.1916 168.68 85.4838 165.124 83.9137C161.599 82.3435 157.273 81.5584 152.146 81.5584H142.725V134.623Z" fill="#3D78F4"/>
        <path d="M215.268 157.311V58.8712H286.214V80.4049H241.993V97.3241H282.561V118.858H241.993V135.777H286.022V157.311H215.268Z" fill="#3D78F4"/>
        <path d="M326.385 58.8712L346.573 128.279H347.342L367.53 58.8712H397.715L365.223 157.311H328.692L296.2 58.8712H326.385Z" fill="#3D78F4"/>
        <path d="M439.052 120.78H459.817L467.315 130.201L480.004 144.621L490.146 158.656H466.498L461.163 150.966L453.28 139.622L439.052 120.78ZM496.347 108.091C496.347 119.05 494.216 128.295 489.954 135.825C485.692 143.323 479.94 149.011 472.698 152.889C465.457 156.734 457.381 158.656 448.473 158.656C439.501 158.656 431.394 156.718 424.152 152.84C416.942 148.931 411.206 143.227 406.944 135.729C402.714 128.199 400.599 118.986 400.599 108.091C400.599 97.1319 402.714 87.9032 406.944 80.4049C411.206 72.8745 416.942 67.1867 424.152 63.3414C431.394 59.4641 439.501 57.5254 448.473 57.5254C457.381 57.5254 465.457 59.4641 472.698 63.3414C479.94 67.1867 485.692 72.8745 489.954 80.4049C494.216 87.9032 496.347 97.1319 496.347 108.091ZM468.853 108.091C468.853 102.195 468.068 97.228 466.498 93.1904C464.96 89.1208 462.669 86.0446 459.624 83.9617C456.612 81.8468 452.895 80.7894 448.473 80.7894C444.051 80.7894 440.318 81.8468 437.274 83.9617C434.262 86.0446 431.97 89.1208 430.4 93.1904C428.862 97.228 428.093 102.195 428.093 108.091C428.093 113.987 428.862 118.97 430.4 123.039C431.97 127.077 434.262 130.153 437.274 132.268C440.318 134.351 444.051 135.392 448.473 135.392C452.895 135.392 456.612 134.351 459.624 132.268C462.669 130.153 464.96 127.077 466.498 123.039C468.068 118.97 468.853 113.987 468.853 108.091Z" fill="#3D78F4"/>
        <path d="M567.1 58.8712H593.825V121.934C593.825 129.432 592.031 135.921 588.442 141.401C584.885 146.848 579.918 151.062 573.541 154.042C567.164 156.99 559.762 158.464 551.335 158.464C542.843 158.464 535.409 156.99 529.032 154.042C522.655 151.062 517.688 146.848 514.131 141.401C510.607 135.921 508.844 129.432 508.844 121.934V58.8712H535.569V119.627C535.569 122.671 536.242 125.395 537.588 127.798C538.934 130.169 540.792 132.028 543.163 133.374C545.567 134.72 548.29 135.392 551.335 135.392C554.411 135.392 557.135 134.72 559.506 133.374C561.877 132.028 563.736 130.169 565.081 127.798C566.427 125.395 567.1 122.671 567.1 119.627V58.8712Z" fill="#3D78F4"/>
        <path d="M632.098 157.311H603.258L635.751 58.8712H672.281L704.774 157.311H675.934L654.4 85.9805H653.631L632.098 157.311ZM626.714 118.473H680.933V138.469H626.714V118.473Z" fill="#3D78F4"/>
        <path d="M714.255 157.311V58.8712H740.979V135.777H780.778V157.311H714.255Z" fill="#3D78F4"/>
        <path d="M769.699 58.8712H799.5L818.726 98.8622H819.495L838.722 58.8712H868.523L832.377 126.356V157.311H805.844V126.356L769.699 58.8712Z" fill="#3D78F4"/>
    </g>
    <defs>
        <clipPath id="clip0_137_8259">
            <rect width="985" height="221" fill="white"/>
        </clipPath>
    </defs>
</svg>
