<svg width="880" height="221" viewBox="0 0 880 221" fill="none" xmlns="http://www.w3.org/2000/svg">
    <g clip-path="url(#clip0_105_8804)">
        <path d="M827.403 88.923C824.172 88.923 821.308 91.0054 820.312 94.0796L794.915 172.482C793.919 175.556 791.056 177.639 787.824 177.639H755.744C751.627 177.639 748.29 180.976 748.29 185.092V213.286C748.29 217.402 751.627 220.74 755.744 220.74H821.654C824.886 220.74 827.749 218.657 828.745 215.583L854.142 137.18C855.138 134.106 858.002 132.024 861.233 132.024H871.802C875.918 132.024 879.255 128.687 879.255 124.57V96.3766C879.255 92.2601 875.918 88.923 871.802 88.923H827.403Z" fill="#3D78F4"/>
        <path d="M755.744 0.270248C751.627 0.270248 748.29 3.60733 748.29 7.72382V35.9237C748.29 40.0402 751.627 43.3773 755.744 43.3773H787.973C791.132 43.3773 793.948 45.3691 795.001 48.348L816.111 108.1C819.558 122.183 832.179 132.09 846.679 132.09H871.802C875.918 132.09 879.255 128.753 879.255 124.636V96.4427C879.255 92.3262 875.918 88.9891 871.802 88.9891H861.233C858.002 88.9891 855.138 86.9067 854.142 83.8324L828.745 5.42693C827.749 2.35263 824.886 0.270248 821.654 0.270248H755.744Z" fill="#52C1D7"/>
        <path d="M58.4005 0.270248C55.1689 0.270248 52.3055 2.35265 51.3097 5.42693L25.9123 83.8324C24.9165 86.9067 22.053 88.9891 18.8215 88.9891H8.25636C4.13986 88.9891 0.80278 92.3262 0.80278 96.4427V124.636C0.80278 128.753 4.13986 132.09 8.25635 132.09H52.6546C55.8862 132.09 58.7497 130.007 59.7455 126.933L85.1398 48.5341C86.1356 45.4597 88.9991 43.3773 92.2307 43.3773H124.314C128.43 43.3773 131.768 40.0402 131.768 35.9237V7.72382C131.768 3.60733 128.43 0.270248 124.314 0.270248H58.4005Z" fill="#3D78F4"/>
        <path d="M8.25636 88.923C4.13986 88.923 0.80278 92.2601 0.80278 96.3766V124.57C0.80278 128.687 4.13986 132.024 8.25635 132.024H18.8215C22.0531 132.024 24.9165 134.106 25.9124 137.18L51.3096 215.583C52.3055 218.657 55.1689 220.74 58.4004 220.74H124.314C128.43 220.74 131.768 217.402 131.768 213.286V185.092C131.768 180.976 128.43 177.639 124.314 177.639H92.082C88.9226 177.639 86.1065 175.647 85.0541 172.668L63.9438 112.913C60.5003 98.8303 47.8753 88.923 33.3757 88.923H8.25636Z" fill="#52C1D7"/>
        <path d="M153.644 157.311H115.768V58.8712H153.259C163.385 58.8712 172.133 60.842 179.503 64.7834C186.905 68.6927 192.609 74.3325 196.615 81.7026C200.652 89.0407 202.671 97.8368 202.671 108.091C202.671 118.345 200.668 127.157 196.663 134.527C192.657 141.865 186.985 147.505 179.647 151.447C172.309 155.356 163.641 157.311 153.644 157.311ZM142.492 134.623H152.682C157.553 134.623 161.703 133.838 165.131 132.268C168.592 130.698 171.22 127.99 173.014 124.145C174.841 120.3 175.754 114.948 175.754 108.091C175.754 101.233 174.825 95.8821 172.966 92.0368C171.14 88.1916 168.448 85.4838 164.891 83.9137C161.366 82.3435 157.04 81.5584 151.913 81.5584H142.492V134.623Z" fill="white"/>
        <path d="M215.036 157.311V58.8712H285.982V80.4049H241.761V97.3241H282.329V118.858H241.761V135.777H285.789V157.311H215.036Z" fill="white"/>
        <path d="M326.153 58.8712L346.341 128.279H347.11L367.297 58.8712H397.483L364.99 157.311H328.46L295.967 58.8712H326.153Z" fill="white"/>
        <path d="M438.82 120.78H459.584L467.083 130.201L479.772 144.621L489.914 158.656H466.265L460.93 150.966L453.047 139.622L438.82 120.78ZM496.115 108.091C496.115 119.05 493.984 128.295 489.722 135.825C485.46 143.323 479.708 149.011 472.466 152.889C465.224 156.734 457.149 158.656 448.241 158.656C439.268 158.656 431.161 156.718 423.919 152.84C416.709 148.931 410.973 143.227 406.712 135.729C402.482 128.199 400.367 118.986 400.367 108.091C400.367 97.1319 402.482 87.9032 406.712 80.4049C410.973 72.8745 416.709 67.1867 423.919 63.3414C431.161 59.4641 439.268 57.5254 448.241 57.5254C457.149 57.5254 465.224 59.4641 472.466 63.3414C479.708 67.1867 485.46 72.8745 489.722 80.4049C493.984 87.9032 496.115 97.1319 496.115 108.091ZM468.621 108.091C468.621 102.195 467.836 97.228 466.265 93.1904C464.727 89.1208 462.436 86.0446 459.392 83.9617C456.38 81.8468 452.663 80.7894 448.241 80.7894C443.819 80.7894 440.085 81.8468 437.041 83.9617C434.029 86.0446 431.738 89.1208 430.168 93.1904C428.63 97.228 427.861 102.195 427.861 108.091C427.861 113.987 428.63 118.97 430.168 123.039C431.738 127.077 434.029 130.153 437.041 132.268C440.085 134.351 443.819 135.392 448.241 135.392C452.663 135.392 456.38 134.351 459.392 132.268C462.436 130.153 464.727 127.077 466.265 123.039C467.836 118.97 468.621 113.987 468.621 108.091Z" fill="white"/>
        <path d="M527.865 157.311H499.026L531.518 58.8712H568.048L600.541 157.311H571.701L550.168 85.9805H549.399L527.865 157.311ZM522.482 118.473H576.7V138.469H522.482V118.473Z" fill="white"/>
        <path d="M610.022 157.311V58.8712H636.747V135.777H676.546V157.311H610.022Z" fill="white"/>
        <path d="M665.466 58.8712H695.267L714.494 98.8622H715.263L734.489 58.8712H764.29L728.145 126.356V157.311H701.612V126.356L665.466 58.8712Z" fill="white"/>
    </g>
    <defs>
        <clipPath id="clip0_105_8804">
            <rect width="880" height="221" fill="white"/>
        </clipPath>
    </defs>
</svg>
